<mxfile host="app.diagrams.net" modified="2023-12-26T13:49:10.513Z" agent="Mozilla/5.0 (Windows NT 10.0; Win64; x64) AppleWebKit/537.36 (KHTML, like Gecko) Chrome/117.0.0.0 Safari/537.36 Edg/117.0.2045.31" etag="_LczGUYnJV_DyLoYEuXZ" version="22.1.11" type="github">
  <diagram name="Page-1" id="QsNBgmYyu_AZqNbyqio7">
    <mxGraphModel dx="953" dy="651" grid="1" gridSize="10" guides="1" tooltips="1" connect="1" arrows="1" fold="1" page="1" pageScale="1" pageWidth="827" pageHeight="1169" math="0" shadow="0">
      <root>
        <mxCell id="0" />
        <mxCell id="1" parent="0" />
        <mxCell id="oMarmj2BILz3y085GE6Q-2" value="Serveur d&#39;autorisation" style="rounded=1;whiteSpace=wrap;html=1;" vertex="1" parent="1">
          <mxGeometry x="600" y="100" width="120" height="60" as="geometry" />
        </mxCell>
        <mxCell id="oMarmj2BILz3y085GE6Q-3" value="Propriétaire de la ressource" style="rounded=1;whiteSpace=wrap;html=1;" vertex="1" parent="1">
          <mxGeometry x="350" y="100" width="120" height="60" as="geometry" />
        </mxCell>
        <mxCell id="oMarmj2BILz3y085GE6Q-4" value="Client" style="rounded=1;whiteSpace=wrap;html=1;" vertex="1" parent="1">
          <mxGeometry x="100" y="100" width="120" height="60" as="geometry" />
        </mxCell>
        <mxCell id="oMarmj2BILz3y085GE6Q-5" value="" style="endArrow=classic;html=1;rounded=0;exitX=0.5;exitY=1;exitDx=0;exitDy=0;dashed=1;" edge="1" parent="1">
          <mxGeometry width="50" height="50" relative="1" as="geometry">
            <mxPoint x="159.5" y="160" as="sourcePoint" />
            <mxPoint x="160" y="370" as="targetPoint" />
            <Array as="points" />
          </mxGeometry>
        </mxCell>
        <mxCell id="oMarmj2BILz3y085GE6Q-6" value="1. Demande des identifiants" style="text;whiteSpace=wrap;fontSize=10;" vertex="1" parent="1">
          <mxGeometry x="166" y="218" width="239" height="30" as="geometry" />
        </mxCell>
        <mxCell id="oMarmj2BILz3y085GE6Q-7" value="" style="endArrow=classic;html=1;rounded=0;exitX=0.5;exitY=1;exitDx=0;exitDy=0;dashed=1;" edge="1" parent="1">
          <mxGeometry width="50" height="50" relative="1" as="geometry">
            <mxPoint x="659.5" y="160" as="sourcePoint" />
            <mxPoint x="660" y="370" as="targetPoint" />
          </mxGeometry>
        </mxCell>
        <mxCell id="oMarmj2BILz3y085GE6Q-8" value="" style="endArrow=classic;html=1;rounded=0;exitX=0.5;exitY=1;exitDx=0;exitDy=0;dashed=1;" edge="1" parent="1" source="oMarmj2BILz3y085GE6Q-3">
          <mxGeometry width="50" height="50" relative="1" as="geometry">
            <mxPoint x="414" y="170" as="sourcePoint" />
            <mxPoint x="410" y="370" as="targetPoint" />
          </mxGeometry>
        </mxCell>
        <mxCell id="oMarmj2BILz3y085GE6Q-9" value="1. Identifiants du propriétaire de la ressource" style="text;whiteSpace=wrap;fontSize=10;" vertex="1" parent="1">
          <mxGeometry x="166" y="248" width="239" height="22" as="geometry" />
        </mxCell>
        <mxCell id="oMarmj2BILz3y085GE6Q-10" value="3. Délivrance du token d&#39;accès et du token de rafraichissement " style="text;whiteSpace=wrap;fontSize=10;" vertex="1" parent="1">
          <mxGeometry x="166" y="338" width="424" height="20" as="geometry" />
        </mxCell>
        <mxCell id="oMarmj2BILz3y085GE6Q-11" value="" style="rounded=0;whiteSpace=wrap;html=1;" vertex="1" parent="1">
          <mxGeometry x="405" y="231" width="10" height="20" as="geometry" />
        </mxCell>
        <mxCell id="oMarmj2BILz3y085GE6Q-12" value="" style="endArrow=classic;html=1;rounded=0;entryX=0;entryY=0.25;entryDx=0;entryDy=0;" edge="1" parent="1" target="oMarmj2BILz3y085GE6Q-11">
          <mxGeometry width="50" height="50" relative="1" as="geometry">
            <mxPoint x="160" y="236" as="sourcePoint" />
            <mxPoint x="400" y="240" as="targetPoint" />
          </mxGeometry>
        </mxCell>
        <mxCell id="oMarmj2BILz3y085GE6Q-13" value="" style="endArrow=classic;html=1;rounded=0;exitX=-0.19;exitY=0.971;exitDx=0;exitDy=0;exitPerimeter=0;dashed=1;dashPattern=8 8;" edge="1" parent="1" source="oMarmj2BILz3y085GE6Q-11">
          <mxGeometry width="50" height="50" relative="1" as="geometry">
            <mxPoint x="410" y="248" as="sourcePoint" />
            <mxPoint x="160" y="250" as="targetPoint" />
          </mxGeometry>
        </mxCell>
        <mxCell id="oMarmj2BILz3y085GE6Q-14" value="" style="rounded=0;whiteSpace=wrap;html=1;" vertex="1" parent="1">
          <mxGeometry x="654" y="286" width="10" height="52" as="geometry" />
        </mxCell>
        <mxCell id="oMarmj2BILz3y085GE6Q-15" value="" style="endArrow=classic;html=1;rounded=0;dashed=1;dashPattern=8 8;" edge="1" parent="1">
          <mxGeometry width="50" height="50" relative="1" as="geometry">
            <mxPoint x="654" y="336.82" as="sourcePoint" />
            <mxPoint x="160" y="337" as="targetPoint" />
          </mxGeometry>
        </mxCell>
        <mxCell id="oMarmj2BILz3y085GE6Q-16" value="" style="endArrow=classic;html=1;rounded=0;dashed=1;dashPattern=8 8;" edge="1" parent="1">
          <mxGeometry width="50" height="50" relative="1" as="geometry">
            <mxPoint x="160" y="290" as="sourcePoint" />
            <mxPoint x="660" y="290" as="targetPoint" />
          </mxGeometry>
        </mxCell>
        <mxCell id="oMarmj2BILz3y085GE6Q-17" value="2. Demande d&#39;un token d&#39;accès avec les identifiants du propriétaire de la ressource" style="text;whiteSpace=wrap;fontSize=10;" vertex="1" parent="1">
          <mxGeometry x="166" y="286" width="404" height="20" as="geometry" />
        </mxCell>
      </root>
    </mxGraphModel>
  </diagram>
</mxfile>
